# xmcd
#
# Track frame offsets: 
#        150
#        19895
#        37115
#        55375
#        74280
#        90942
#        110272
#        128807
#        147677
#        165592
#        180885
#        199107
#        216320
#        235230
#        255920
#        274152
#        290170
#        310732
#
# Disc length: 4383 seconds
#
# Revision: 1
# Processed by: cddbd v1.5.2PL0 Copyright (c) Steve Scherf et al.
# Submitted via: ExactAudioCopy v0.95b3
#
DISCID=09111d12
DTITLE=Various Artist - Adidas Streetball Challenge 1996
DYEAR=1996
DGENRE=Hip-Hop
TTITLE0=Down Low - Vision Of Life (Radio Version)
TTITLE1=G-Groove - Everybody (Airplay Zero Mix)
TTITLE2=2Pac feat. Dr. Dre - California Love (Short Radio Mix)
TTITLE3=Skee-Lo - I Wish (Hot Edit)
TTITLE4=Coolio - Too Hot (Hot Edit)
TTITLE5=Fugees - Fu-Gee-La (Refugee Camp Edit)
TTITLE6=Da Luniz - I Got 5 On It (Single Edit)
TTITLE7=Warren G - Regulate (Edit)
TTITLE8=M.C. Boss - For The Rebound (Original Mix)
TTITLE9=Salt'N Pepa - None Of Your Business (Perfecto Radio Mix)
TTITLE10=Rappin' 4-Tay - I'll Be Around (Timber Mix)
TTITLE11=L.V. feat. Treach - Throw Your Hands Up (Single Edit)
TTITLE12=Suga - What's Up Star? (LP Edit)
TTITLE13=Tha Dogg Pound - Smooth (Album Version)
TTITLE14=Father Dom - Rumors (Original Version)
TTITLE15=Mark Morrison - Return Of The Mack (C&J Street Mix)
TTITLE16=Liverpool FC and The Boot Room Boyz - Pass and More (It's The Liv
TTITLE16=erpool Groove) (7'' Radio Edit)
TTITLE17=LL Cool J feat. Boyz II Men - Hey Lover (Original)
EXTD=
EXTT0=
EXTT1=
EXTT2=
EXTT3=
EXTT4=
EXTT5=
EXTT6=
EXTT7=
EXTT8=
EXTT9=
EXTT10=
EXTT11=
EXTT12=
EXTT13=
EXTT14=
EXTT15=
EXTT16=
EXTT17=
PLAYORDER=
